<svg width="160" height="27" viewBox="0 0 160 27" fill="none" xmlns="http://www.w3.org/2000/svg">
<path d="M6.56 21.472C5.888 21.472 5.568 20.832 5.568 19.52C5.568 18.464 5.792 17.024 6.24 15.168C6.848 12.704 7.456 10.976 8 10.048C8.288 9.568 8.096 9.056 7.488 8.512C6.88 7.968 6.112 7.712 5.248 7.712C3.104 7.616 1.376 10.08 0.384 14.976C0.128 16.256 0 17.472 0 18.592C0 23.424 2.24 26.272 5.856 26.272C7.296 26.272 8.64 25.632 9.92 24.352C11.072 25.632 12.544 26.272 14.304 26.272C16.256 26.272 18.176 25.536 20.064 24.096C21.056 24.576 22.112 24.832 23.232 24.832C26.528 24.832 29.056 22.752 30.336 18.624C30.496 17.92 30.304 17.28 29.696 16.672C29.088 16.064 28.48 15.744 27.808 15.744C27.2 15.744 26.784 16.032 26.624 16.608C26.08 19.008 24.864 20.832 23.168 20.832C24.608 18.816 25.536 16.768 25.888 14.656C26.016 13.888 26.08 13.184 26.08 12.512C26.08 8.96 24.192 7.072 21.376 7.072C19.616 7.072 18.208 7.968 17.12 9.76C16.032 11.52 15.488 13.536 15.488 15.808C15.488 16.544 15.552 17.216 15.68 17.856C15.872 18.88 16.192 19.84 16.672 20.736C16 21.216 15.424 21.472 14.88 21.472C13.824 21.472 13.184 20.992 12.896 20C13.696 18.368 14.336 16.544 14.752 14.56C14.944 13.632 15.04 12.768 15.04 12C15.04 9.92 14.368 8.8 12.992 8.64C10.688 8.352 8.864 10.144 8.128 15.104C8 16.096 7.936 17.024 7.936 17.856C7.936 18.784 8 19.552 8.096 20.128C7.52 21.024 7.008 21.472 6.56 21.472ZM19.552 16.128C19.36 13.984 20.032 11.68 20.64 11.808C20.896 11.84 21.024 12.128 21.024 12.672C21.024 13.344 20.8 14.336 20.32 15.68C20.096 16.224 19.904 16.672 19.712 17.024C19.648 16.832 19.584 16.544 19.552 16.128Z" fill="#7BE7FF"/>
<path d="M48.8048 18.592C48.9967 17.888 48.8047 17.248 48.1968 16.672C47.6208 16.096 46.9808 15.808 46.3088 15.808C45.6367 15.808 45.2207 16.128 45.0288 16.736C44.7408 17.984 44.2928 19.072 43.6847 20.032C43.0768 20.992 42.4688 21.472 41.9248 21.472C41.2528 21.472 40.8048 20.416 40.8048 18.752C40.8048 18.208 40.8368 17.824 40.8688 17.536C40.9648 16.544 41.2848 15.328 41.7648 13.92C42.2768 12.512 42.7568 11.424 43.2368 10.624C43.8448 9.504 43.1087 8.256 41.4128 8C40.2928 7.872 39.3008 8.288 38.4368 9.216C37.2528 8.352 36.0688 7.872 34.8208 7.84C30.6928 7.84 27.6208 11.104 26.6287 16.48C26.4688 17.408 26.4048 18.208 26.4048 18.88C26.4048 21.28 27.0128 23.104 28.2607 24.384C29.5087 25.632 30.9167 26.272 32.4207 26.272C34.1167 26.272 35.6527 25.536 36.9967 24.032C37.9888 25.536 39.3647 26.272 41.0928 26.272C44.6768 26.272 47.2368 23.712 48.8048 18.592ZM36.0688 15.456C36.0688 15.488 36.0368 15.616 36.0368 15.648C35.6208 19.072 34.5648 21.472 33.0288 21.472C32.1007 21.472 31.5247 20.384 31.5247 18.624C31.5247 18.016 31.5887 17.312 31.7167 16.512C32.3247 13.856 33.5728 12.48 34.8848 12.48C35.5247 12.48 36.1007 12.672 36.5807 13.056C36.3568 13.92 36.1648 14.72 36.0688 15.456Z" fill="#7BE7FF"/>
<path d="M45.3862 13.92C45.2262 15.328 45.1302 16.544 45.1302 17.6C45.1302 22.816 47.0503 25.824 50.2503 26.176C52.1063 26.176 53.8982 25.344 55.6582 23.68C57.4183 22.016 58.6343 19.904 59.3063 17.312C59.6582 15.904 59.8503 14.56 59.8503 13.312C59.8503 10.144 58.8262 8.288 56.7463 7.744C56.4263 7.68 56.1063 7.648 55.7863 7.648C54.3783 7.648 52.9703 8.32 51.5623 9.696C52.3943 5.888 53.0983 3.456 53.6743 2.368C53.9622 1.888 53.8023 1.376 53.1943 0.832001C52.5863 0.288 51.8503 0.0319996 50.9543 0C49.3862 0 48.1702 1.312 47.3063 4C46.4423 6.656 45.9302 9.536 45.3862 13.92ZM50.2503 17.696C50.9223 14.656 52.2023 12.544 53.4823 12.544C54.1862 12.544 54.5382 13.28 54.5382 14.752C54.5382 15.424 54.4423 16.192 54.2503 17.024C53.5783 19.68 52.1383 21.6 50.9543 21.6C50.4103 21.6 50.1543 20.896 50.1543 19.456C50.1543 18.752 50.1862 18.176 50.2183 17.76V17.728L50.2503 17.696Z" fill="#7BE7FF"/>
<path d="M66.391 16.256C67.191 13.088 67.863 11.04 68.375 10.048C68.599 9.568 68.439 9.056 67.831 8.512C67.223 7.968 66.519 7.712 65.655 7.712C63.383 7.648 61.687 10.432 60.503 16.032C60.311 17.088 60.215 18.112 60.215 19.104C60.215 21.056 60.631 22.72 61.431 24.032C62.231 25.344 63.351 26.112 64.727 26.272C66.615 26.432 68.311 25.76 69.815 24.32C71.319 22.848 72.439 20.928 73.143 18.592C73.367 17.856 73.207 17.184 72.663 16.64C72.119 16.064 71.479 15.776 70.743 15.776C70.071 15.776 69.655 16.096 69.463 16.736C69.175 17.984 68.695 19.104 68.087 20.064C67.479 20.992 66.871 21.472 66.327 21.472C66.007 21.472 65.847 20.992 65.847 20C65.847 18.944 66.039 17.696 66.391 16.256ZM64.183 3.008C64.183 4.928 65.431 5.952 66.711 5.952C68.407 5.952 70.071 4.544 70.711 3.232C70.871 2.816 70.967 2.464 70.967 2.208C70.967 0.960001 69.815 0.224001 68.567 0.128C67.127 0.0639992 66.007 0.351999 65.271 0.960001C64.535 1.568 64.183 2.272 64.183 3.008Z" fill="#7BE7FF"/>
<path d="M83.077 25.9999C82.957 25.9999 82.855 25.9579 82.771 25.8739C82.687 25.7899 82.645 25.6879 82.645 25.5679V13.8499C82.645 13.7179 82.681 13.6099 82.753 13.5259C82.837 13.4419 82.945 13.3999 83.077 13.3999H88.297C89.701 13.3999 90.745 13.7119 91.429 14.3359C92.125 14.9479 92.473 15.7879 92.473 16.8559C92.473 17.4799 92.317 18.0139 92.005 18.4579C91.705 18.8899 91.351 19.2019 90.943 19.3939C91.447 19.6219 91.867 19.9939 92.203 20.5099C92.551 21.0259 92.725 21.6139 92.725 22.2739C92.725 23.3899 92.347 24.2899 91.591 24.9739C90.847 25.6579 89.797 25.9999 88.441 25.9999H83.077ZM87.973 18.5659C88.597 18.5659 89.071 18.4159 89.395 18.1159C89.719 17.8159 89.881 17.4139 89.881 16.9099C89.881 16.3939 89.719 15.9979 89.395 15.7219C89.071 15.4339 88.597 15.2899 87.973 15.2899H85.147V18.5659H87.973ZM88.153 24.0919C88.777 24.0919 89.263 23.9239 89.611 23.5879C89.959 23.2399 90.133 22.8019 90.133 22.2739C90.133 21.7339 89.959 21.2959 89.611 20.9599C89.263 20.6119 88.777 20.4379 88.153 20.4379H85.147V24.0919H88.153Z" fill="white"/>
<path d="M98.2428 26.1799C97.1388 26.1799 96.2688 25.8199 95.6328 25.0999C94.9968 24.3679 94.6788 23.3779 94.6788 22.1299V17.0719C94.6788 16.9519 94.7208 16.8499 94.8048 16.7659C94.8888 16.6819 94.9908 16.6399 95.1108 16.6399H96.6948C96.8268 16.6399 96.9288 16.6819 97.0008 16.7659C97.0848 16.8379 97.1268 16.9399 97.1268 17.0719V22.0219C97.1268 23.5099 97.7808 24.2539 99.0888 24.2539C99.7128 24.2539 100.205 24.0559 100.565 23.6599C100.937 23.2639 101.123 22.7179 101.123 22.0219V17.0719C101.123 16.9519 101.165 16.8499 101.249 16.7659C101.333 16.6819 101.435 16.6399 101.555 16.6399H103.139C103.271 16.6399 103.373 16.6819 103.445 16.7659C103.529 16.8379 103.571 16.9399 103.571 17.0719V25.5679C103.571 25.6879 103.529 25.7899 103.445 25.8739C103.373 25.9579 103.271 25.9999 103.139 25.9999H101.681C101.561 25.9999 101.459 25.9579 101.375 25.8739C101.291 25.7899 101.249 25.6879 101.249 25.5679V24.8299C100.577 25.7299 99.5748 26.1799 98.2428 26.1799Z" fill="white"/>
<path d="M109.495 26.1799C108.595 26.1799 107.839 26.0479 107.227 25.7839C106.615 25.5079 106.159 25.1899 105.859 24.8299C105.571 24.4579 105.427 24.1399 105.427 23.8759C105.427 23.7559 105.469 23.6599 105.553 23.5879C105.637 23.5159 105.733 23.4799 105.841 23.4799H107.263C107.371 23.4799 107.461 23.5219 107.533 23.6059C107.581 23.6419 107.707 23.7499 107.911 23.9299C108.115 24.1219 108.355 24.2719 108.631 24.3799C108.907 24.4879 109.213 24.5419 109.549 24.5419C110.029 24.5419 110.425 24.4459 110.737 24.2539C111.049 24.0619 111.205 23.7979 111.205 23.4619C111.205 23.2099 111.133 23.0059 110.989 22.8499C110.857 22.6939 110.611 22.5559 110.251 22.4359C109.891 22.3039 109.357 22.1659 108.649 22.0219C107.629 21.8059 106.873 21.4759 106.381 21.0319C105.901 20.5879 105.661 19.9999 105.661 19.2679C105.661 18.7879 105.805 18.3379 106.093 17.9179C106.381 17.4859 106.807 17.1379 107.371 16.8739C107.947 16.5979 108.631 16.4599 109.423 16.4599C110.227 16.4599 110.923 16.5919 111.511 16.8559C112.099 17.1079 112.543 17.4139 112.843 17.7739C113.155 18.1219 113.311 18.4339 113.311 18.7099C113.311 18.8179 113.269 18.9139 113.185 18.9979C113.113 19.0699 113.023 19.1059 112.915 19.1059H111.583C111.487 19.1059 111.385 19.0639 111.277 18.9799C111.193 18.9199 111.061 18.8059 110.881 18.6379C110.701 18.4699 110.491 18.3379 110.251 18.2419C110.011 18.1459 109.729 18.0979 109.405 18.0979C108.961 18.0979 108.613 18.1939 108.361 18.3859C108.121 18.5779 108.001 18.8299 108.001 19.1419C108.001 19.3699 108.061 19.5559 108.181 19.6999C108.301 19.8439 108.535 19.9819 108.883 20.1139C109.231 20.2459 109.753 20.3779 110.449 20.5099C111.601 20.7379 112.423 21.0919 112.915 21.5719C113.419 22.0519 113.671 22.6399 113.671 23.3359C113.671 24.1759 113.305 24.8599 112.573 25.3879C111.841 25.9159 110.815 26.1799 109.495 26.1799Z" fill="white"/>
<path d="M115.889 15.0919C115.769 15.0919 115.667 15.0499 115.583 14.9659C115.499 14.8819 115.457 14.7799 115.457 14.6599V13.3639C115.457 13.2439 115.499 13.1419 115.583 13.0579C115.667 12.9739 115.769 12.9319 115.889 12.9319H117.527C117.647 12.9319 117.749 12.9739 117.833 13.0579C117.929 13.1419 117.977 13.2439 117.977 13.3639V14.6599C117.977 14.7799 117.935 14.8819 117.851 14.9659C117.767 15.0499 117.659 15.0919 117.527 15.0919H115.889ZM115.961 25.9999C115.841 25.9999 115.739 25.9579 115.655 25.8739C115.571 25.7899 115.529 25.6879 115.529 25.5679V17.0719C115.529 16.9519 115.571 16.8499 115.655 16.7659C115.739 16.6819 115.841 16.6399 115.961 16.6399H117.455C117.587 16.6399 117.689 16.6819 117.761 16.7659C117.845 16.8379 117.887 16.9399 117.887 17.0719V25.5679C117.887 25.6879 117.845 25.7899 117.761 25.8739C117.689 25.9579 117.587 25.9999 117.455 25.9999H115.961Z" fill="white"/>
<path d="M120.707 25.9999C120.587 25.9999 120.485 25.9579 120.401 25.8739C120.317 25.7899 120.275 25.6879 120.275 25.5679V17.0719C120.275 16.9519 120.317 16.8499 120.401 16.7659C120.485 16.6819 120.587 16.6399 120.707 16.6399H122.183C122.303 16.6399 122.405 16.6819 122.489 16.7659C122.573 16.8499 122.615 16.9519 122.615 17.0719V17.8099C123.323 16.9099 124.325 16.4599 125.621 16.4599C126.725 16.4599 127.601 16.8259 128.249 17.5579C128.897 18.2779 129.221 19.2619 129.221 20.5099V25.5679C129.221 25.6879 129.179 25.7899 129.095 25.8739C129.023 25.9579 128.921 25.9999 128.789 25.9999H127.205C127.085 25.9999 126.983 25.9579 126.899 25.8739C126.815 25.7899 126.773 25.6879 126.773 25.5679V20.6179C126.773 19.9099 126.599 19.3639 126.251 18.9799C125.915 18.5839 125.423 18.3859 124.775 18.3859C124.139 18.3859 123.635 18.5839 123.263 18.9799C122.903 19.3759 122.723 19.9219 122.723 20.6179V25.5679C122.723 25.6879 122.681 25.7899 122.597 25.8739C122.525 25.9579 122.423 25.9999 122.291 25.9999H120.707Z" fill="white"/>
<path d="M135.539 26.1799C134.207 26.1799 133.145 25.7959 132.353 25.0279C131.573 24.2479 131.159 23.1559 131.111 21.7519L131.093 21.3019L131.111 20.8519C131.171 19.4839 131.591 18.4099 132.371 17.6299C133.163 16.8499 134.219 16.4599 135.539 16.4599C136.955 16.4599 138.047 16.8919 138.815 17.7559C139.595 18.6199 139.985 19.7719 139.985 21.2119V21.5899C139.985 21.7099 139.943 21.8119 139.859 21.8959C139.775 21.9799 139.667 22.0219 139.535 22.0219H133.559V22.1659C133.583 22.8259 133.763 23.3839 134.099 23.8399C134.447 24.2839 134.921 24.5059 135.521 24.5059C136.229 24.5059 136.799 24.2299 137.231 23.6779C137.339 23.5459 137.423 23.4619 137.483 23.4259C137.555 23.3899 137.657 23.3719 137.789 23.3719H139.337C139.445 23.3719 139.535 23.4079 139.607 23.4799C139.691 23.5399 139.733 23.6179 139.733 23.7139C139.733 24.0019 139.559 24.3439 139.211 24.7399C138.875 25.1239 138.389 25.4599 137.753 25.7479C137.117 26.0359 136.379 26.1799 135.539 26.1799ZM137.537 20.5099V20.4559C137.537 19.7479 137.357 19.1779 136.997 18.7459C136.649 18.3139 136.163 18.0979 135.539 18.0979C134.915 18.0979 134.429 18.3139 134.081 18.7459C133.733 19.1779 133.559 19.7479 133.559 20.4559V20.5099H137.537Z" fill="white"/>
<path d="M145.442 26.1799C144.542 26.1799 143.786 26.0479 143.174 25.7839C142.562 25.5079 142.106 25.1899 141.806 24.8299C141.518 24.4579 141.374 24.1399 141.374 23.8759C141.374 23.7559 141.416 23.6599 141.5 23.5879C141.584 23.5159 141.68 23.4799 141.788 23.4799H143.21C143.318 23.4799 143.408 23.5219 143.48 23.6059C143.528 23.6419 143.654 23.7499 143.858 23.9299C144.062 24.1219 144.302 24.2719 144.578 24.3799C144.854 24.4879 145.16 24.5419 145.496 24.5419C145.976 24.5419 146.372 24.4459 146.684 24.2539C146.996 24.0619 147.152 23.7979 147.152 23.4619C147.152 23.2099 147.08 23.0059 146.936 22.8499C146.804 22.6939 146.558 22.5559 146.198 22.4359C145.838 22.3039 145.304 22.1659 144.596 22.0219C143.576 21.8059 142.82 21.4759 142.328 21.0319C141.848 20.5879 141.608 19.9999 141.608 19.2679C141.608 18.7879 141.752 18.3379 142.04 17.9179C142.328 17.4859 142.754 17.1379 143.318 16.8739C143.894 16.5979 144.578 16.4599 145.37 16.4599C146.174 16.4599 146.87 16.5919 147.458 16.8559C148.046 17.1079 148.49 17.4139 148.79 17.7739C149.102 18.1219 149.258 18.4339 149.258 18.7099C149.258 18.8179 149.216 18.9139 149.132 18.9979C149.06 19.0699 148.97 19.1059 148.862 19.1059H147.53C147.434 19.1059 147.332 19.0639 147.224 18.9799C147.14 18.9199 147.008 18.8059 146.828 18.6379C146.648 18.4699 146.438 18.3379 146.198 18.2419C145.958 18.1459 145.676 18.0979 145.352 18.0979C144.908 18.0979 144.56 18.1939 144.308 18.3859C144.068 18.5779 143.948 18.8299 143.948 19.1419C143.948 19.3699 144.008 19.5559 144.128 19.6999C144.248 19.8439 144.482 19.9819 144.83 20.1139C145.178 20.2459 145.7 20.3779 146.396 20.5099C147.548 20.7379 148.37 21.0919 148.862 21.5719C149.366 22.0519 149.618 22.6399 149.618 23.3359C149.618 24.1759 149.252 24.8599 148.52 25.3879C147.788 25.9159 146.762 26.1799 145.442 26.1799Z" fill="white"/>
<path d="M155.022 26.1799C154.122 26.1799 153.366 26.0479 152.754 25.7839C152.142 25.5079 151.686 25.1899 151.386 24.8299C151.098 24.4579 150.954 24.1399 150.954 23.8759C150.954 23.7559 150.996 23.6599 151.08 23.5879C151.164 23.5159 151.26 23.4799 151.368 23.4799H152.79C152.898 23.4799 152.988 23.5219 153.06 23.6059C153.108 23.6419 153.234 23.7499 153.438 23.9299C153.642 24.1219 153.882 24.2719 154.158 24.3799C154.434 24.4879 154.74 24.5419 155.076 24.5419C155.556 24.5419 155.952 24.4459 156.264 24.2539C156.576 24.0619 156.732 23.7979 156.732 23.4619C156.732 23.2099 156.66 23.0059 156.516 22.8499C156.384 22.6939 156.138 22.5559 155.778 22.4359C155.418 22.3039 154.884 22.1659 154.176 22.0219C153.156 21.8059 152.4 21.4759 151.908 21.0319C151.428 20.5879 151.188 19.9999 151.188 19.2679C151.188 18.7879 151.332 18.3379 151.62 17.9179C151.908 17.4859 152.334 17.1379 152.898 16.8739C153.474 16.5979 154.158 16.4599 154.95 16.4599C155.754 16.4599 156.45 16.5919 157.038 16.8559C157.626 17.1079 158.07 17.4139 158.37 17.7739C158.682 18.1219 158.838 18.4339 158.838 18.7099C158.838 18.8179 158.796 18.9139 158.712 18.9979C158.64 19.0699 158.55 19.1059 158.442 19.1059H157.11C157.014 19.1059 156.912 19.0639 156.804 18.9799C156.72 18.9199 156.588 18.8059 156.408 18.6379C156.228 18.4699 156.018 18.3379 155.778 18.2419C155.538 18.1459 155.256 18.0979 154.932 18.0979C154.488 18.0979 154.14 18.1939 153.888 18.3859C153.648 18.5779 153.528 18.8299 153.528 19.1419C153.528 19.3699 153.588 19.5559 153.708 19.6999C153.828 19.8439 154.062 19.9819 154.41 20.1139C154.758 20.2459 155.28 20.3779 155.976 20.5099C157.128 20.7379 157.95 21.0919 158.442 21.5719C158.946 22.0519 159.198 22.6399 159.198 23.3359C159.198 24.1759 158.832 24.8599 158.1 25.3879C157.368 25.9159 156.342 26.1799 155.022 26.1799Z" fill="white"/>
</svg>
